<mxfile host="app.diagrams.net" modified="2024-01-25T14:46:41.581Z" agent="Mozilla/5.0 (Windows NT 10.0; Win64; x64) AppleWebKit/537.36 (KHTML, like Gecko) Chrome/120.0.0.0 Safari/537.36 Edg/120.0.0.0" version="23.0.1" etag="5ThguMYC061G1s3QrMA3" type="github">
  <diagram name="Page-1" id="oxRuK8wBkCjJWL53NdNE">
    <mxGraphModel>
      <root>
        <mxCell id="0" />
        <mxCell id="1" parent="0" />
      </root>
    </mxGraphModel>
  </diagram>
</mxfile>
